<mxfile host="app.diagrams.net" modified="2023-04-12T11:41:31.768Z" agent="Mozilla/5.0 (Windows NT 10.0; Win64; x64) AppleWebKit/537.36 (KHTML, like Gecko) Chrome/112.0.0.0 Safari/537.36" etag="eOQlkVo42cO8R484ji7r" version="21.1.4" type="github">
  <diagram name="Page-1" id="LGVPh05ZBT1nGibNOVN7">
    <mxGraphModel dx="1001" dy="415" grid="0" gridSize="10" guides="1" tooltips="1" connect="1" arrows="1" fold="1" page="0" pageScale="1" pageWidth="827" pageHeight="1169" math="0" shadow="0">
      <root>
        <mxCell id="0" />
        <mxCell id="1" parent="0" />
        <mxCell id="ETbA9mEnri0oae91W18B-1" value="" style="rounded=1;whiteSpace=wrap;html=1;fillColor=#f5f5f5;fontColor=#333333;strokeColor=#666666;" vertex="1" parent="1">
          <mxGeometry x="180" y="50" width="160" height="410" as="geometry" />
        </mxCell>
        <mxCell id="ETbA9mEnri0oae91W18B-23" style="edgeStyle=orthogonalEdgeStyle;rounded=0;orthogonalLoop=1;jettySize=auto;html=1;exitX=0.5;exitY=1;exitDx=0;exitDy=0;entryX=0.5;entryY=0;entryDx=0;entryDy=0;strokeWidth=2;startArrow=classic;startFill=1;endSize=4;startSize=4;" edge="1" parent="1" source="ETbA9mEnri0oae91W18B-2" target="ETbA9mEnri0oae91W18B-4">
          <mxGeometry relative="1" as="geometry" />
        </mxCell>
        <mxCell id="ETbA9mEnri0oae91W18B-2" value="" style="rounded=1;whiteSpace=wrap;html=1;" vertex="1" parent="1">
          <mxGeometry x="200" y="80" width="120" height="60" as="geometry" />
        </mxCell>
        <mxCell id="ETbA9mEnri0oae91W18B-20" style="edgeStyle=orthogonalEdgeStyle;rounded=0;orthogonalLoop=1;jettySize=auto;html=1;exitX=1;exitY=0.5;exitDx=0;exitDy=0;entryX=0;entryY=0.5;entryDx=0;entryDy=0;startArrow=classic;startFill=1;strokeWidth=2;endSize=4;startSize=4;dashed=1;" edge="1" parent="1" source="ETbA9mEnri0oae91W18B-3" target="ETbA9mEnri0oae91W18B-9">
          <mxGeometry relative="1" as="geometry" />
        </mxCell>
        <mxCell id="ETbA9mEnri0oae91W18B-3" value="" style="rounded=1;whiteSpace=wrap;html=1;" vertex="1" parent="1">
          <mxGeometry x="200" y="320" width="120" height="60" as="geometry" />
        </mxCell>
        <mxCell id="ETbA9mEnri0oae91W18B-24" style="edgeStyle=orthogonalEdgeStyle;rounded=0;orthogonalLoop=1;jettySize=auto;html=1;exitX=0.5;exitY=1;exitDx=0;exitDy=0;entryX=0.5;entryY=0;entryDx=0;entryDy=0;startArrow=classic;startFill=1;strokeWidth=2;endSize=4;startSize=4;" edge="1" parent="1" source="ETbA9mEnri0oae91W18B-4" target="ETbA9mEnri0oae91W18B-3">
          <mxGeometry relative="1" as="geometry" />
        </mxCell>
        <mxCell id="ETbA9mEnri0oae91W18B-4" value="" style="rounded=1;whiteSpace=wrap;html=1;dashed=1;" vertex="1" parent="1">
          <mxGeometry x="200" y="170" width="120" height="120" as="geometry" />
        </mxCell>
        <mxCell id="ETbA9mEnri0oae91W18B-5" value="&lt;font style=&quot;font-size: 24px;&quot;&gt;节点&lt;/font&gt;" style="text;strokeColor=none;align=center;fillColor=none;html=1;verticalAlign=middle;whiteSpace=wrap;rounded=0;fontSize=24;" vertex="1" parent="1">
          <mxGeometry x="215" y="410" width="90" height="30" as="geometry" />
        </mxCell>
        <mxCell id="ETbA9mEnri0oae91W18B-6" value="网络设备" style="text;strokeColor=none;align=center;fillColor=none;html=1;verticalAlign=middle;whiteSpace=wrap;rounded=0;fontSize=24;" vertex="1" parent="1">
          <mxGeometry x="210" y="335" width="100" height="30" as="geometry" />
        </mxCell>
        <mxCell id="ETbA9mEnri0oae91W18B-7" value="&lt;font style=&quot;font-size: 24px;&quot;&gt;协议栈&lt;/font&gt;" style="text;strokeColor=none;align=center;fillColor=none;html=1;verticalAlign=middle;whiteSpace=wrap;rounded=0;fontSize=24;" vertex="1" parent="1">
          <mxGeometry x="215" y="215" width="90" height="30" as="geometry" />
        </mxCell>
        <mxCell id="ETbA9mEnri0oae91W18B-8" value="&lt;font style=&quot;font-size: 24px;&quot;&gt;应用&lt;/font&gt;" style="text;strokeColor=none;align=center;fillColor=none;html=1;verticalAlign=middle;whiteSpace=wrap;rounded=0;fontSize=24;" vertex="1" parent="1">
          <mxGeometry x="215" y="95" width="90" height="30" as="geometry" />
        </mxCell>
        <mxCell id="ETbA9mEnri0oae91W18B-9" value="" style="rounded=1;whiteSpace=wrap;html=1;" vertex="1" parent="1">
          <mxGeometry x="400" y="320" width="120" height="60" as="geometry" />
        </mxCell>
        <mxCell id="ETbA9mEnri0oae91W18B-10" value="&lt;font style=&quot;font-size: 24px;&quot;&gt;信道&lt;/font&gt;" style="text;strokeColor=none;align=center;fillColor=none;html=1;verticalAlign=middle;whiteSpace=wrap;rounded=0;fontSize=24;" vertex="1" parent="1">
          <mxGeometry x="415" y="335" width="90" height="30" as="geometry" />
        </mxCell>
        <mxCell id="ETbA9mEnri0oae91W18B-11" value="" style="rounded=1;whiteSpace=wrap;html=1;fillColor=#f5f5f5;fontColor=#333333;strokeColor=#666666;" vertex="1" parent="1">
          <mxGeometry x="580" y="50" width="160" height="410" as="geometry" />
        </mxCell>
        <mxCell id="ETbA9mEnri0oae91W18B-26" style="edgeStyle=orthogonalEdgeStyle;rounded=0;orthogonalLoop=1;jettySize=auto;html=1;exitX=0.5;exitY=1;exitDx=0;exitDy=0;entryX=0.5;entryY=0;entryDx=0;entryDy=0;strokeWidth=2;startArrow=classic;startFill=1;endSize=4;startSize=4;" edge="1" parent="1" source="ETbA9mEnri0oae91W18B-12" target="ETbA9mEnri0oae91W18B-14">
          <mxGeometry relative="1" as="geometry" />
        </mxCell>
        <mxCell id="ETbA9mEnri0oae91W18B-12" value="" style="rounded=1;whiteSpace=wrap;html=1;" vertex="1" parent="1">
          <mxGeometry x="600" y="80" width="120" height="60" as="geometry" />
        </mxCell>
        <mxCell id="ETbA9mEnri0oae91W18B-22" style="edgeStyle=orthogonalEdgeStyle;rounded=0;orthogonalLoop=1;jettySize=auto;html=1;exitX=0;exitY=0.5;exitDx=0;exitDy=0;entryX=1;entryY=0.5;entryDx=0;entryDy=0;dashed=1;startArrow=classic;startFill=1;strokeWidth=2;endSize=4;startSize=4;" edge="1" parent="1" source="ETbA9mEnri0oae91W18B-13" target="ETbA9mEnri0oae91W18B-9">
          <mxGeometry relative="1" as="geometry" />
        </mxCell>
        <mxCell id="ETbA9mEnri0oae91W18B-13" value="" style="rounded=1;whiteSpace=wrap;html=1;" vertex="1" parent="1">
          <mxGeometry x="600" y="320" width="120" height="60" as="geometry" />
        </mxCell>
        <mxCell id="ETbA9mEnri0oae91W18B-27" style="edgeStyle=orthogonalEdgeStyle;rounded=0;orthogonalLoop=1;jettySize=auto;html=1;exitX=0.5;exitY=1;exitDx=0;exitDy=0;entryX=0.5;entryY=0;entryDx=0;entryDy=0;strokeWidth=2;startArrow=classic;startFill=1;endSize=4;startSize=4;" edge="1" parent="1" source="ETbA9mEnri0oae91W18B-14" target="ETbA9mEnri0oae91W18B-13">
          <mxGeometry relative="1" as="geometry" />
        </mxCell>
        <mxCell id="ETbA9mEnri0oae91W18B-14" value="" style="rounded=1;whiteSpace=wrap;html=1;dashed=1;" vertex="1" parent="1">
          <mxGeometry x="600" y="170" width="120" height="120" as="geometry" />
        </mxCell>
        <mxCell id="ETbA9mEnri0oae91W18B-15" value="&lt;font style=&quot;font-size: 24px;&quot;&gt;节点&lt;/font&gt;" style="text;strokeColor=none;align=center;fillColor=none;html=1;verticalAlign=middle;whiteSpace=wrap;rounded=0;fontSize=24;" vertex="1" parent="1">
          <mxGeometry x="615" y="410" width="90" height="30" as="geometry" />
        </mxCell>
        <mxCell id="ETbA9mEnri0oae91W18B-16" value="网络设备" style="text;strokeColor=none;align=center;fillColor=none;html=1;verticalAlign=middle;whiteSpace=wrap;rounded=0;fontSize=24;" vertex="1" parent="1">
          <mxGeometry x="610" y="335" width="100" height="30" as="geometry" />
        </mxCell>
        <mxCell id="ETbA9mEnri0oae91W18B-17" value="&lt;font style=&quot;font-size: 24px;&quot;&gt;协议栈&lt;/font&gt;" style="text;strokeColor=none;align=center;fillColor=none;html=1;verticalAlign=middle;whiteSpace=wrap;rounded=0;fontSize=24;" vertex="1" parent="1">
          <mxGeometry x="615" y="215" width="90" height="30" as="geometry" />
        </mxCell>
        <mxCell id="ETbA9mEnri0oae91W18B-18" value="&lt;font style=&quot;font-size: 24px;&quot;&gt;应用&lt;/font&gt;" style="text;strokeColor=none;align=center;fillColor=none;html=1;verticalAlign=middle;whiteSpace=wrap;rounded=0;fontSize=24;" vertex="1" parent="1">
          <mxGeometry x="615" y="95" width="90" height="30" as="geometry" />
        </mxCell>
        <mxCell id="ETbA9mEnri0oae91W18B-29" value="&lt;font style=&quot;font-size: 24px;&quot;&gt;类Socket API&lt;/font&gt;" style="text;strokeColor=none;align=center;fillColor=none;html=1;verticalAlign=middle;whiteSpace=wrap;rounded=0;fontSize=24;" vertex="1" parent="1">
          <mxGeometry x="373.5" y="95" width="173" height="30" as="geometry" />
        </mxCell>
        <mxCell id="ETbA9mEnri0oae91W18B-30" value="" style="endArrow=classic;html=1;rounded=0;entryX=0.5;entryY=0;entryDx=0;entryDy=0;exitX=1;exitY=1;exitDx=0;exitDy=0;" edge="1" parent="1" source="ETbA9mEnri0oae91W18B-29" target="ETbA9mEnri0oae91W18B-14">
          <mxGeometry width="50" height="50" relative="1" as="geometry">
            <mxPoint x="541" y="118" as="sourcePoint" />
            <mxPoint x="600" y="157" as="targetPoint" />
          </mxGeometry>
        </mxCell>
        <mxCell id="ETbA9mEnri0oae91W18B-31" value="" style="endArrow=classic;html=1;rounded=0;exitX=0;exitY=1;exitDx=0;exitDy=0;" edge="1" parent="1" source="ETbA9mEnri0oae91W18B-29">
          <mxGeometry width="50" height="50" relative="1" as="geometry">
            <mxPoint x="353" y="110" as="sourcePoint" />
            <mxPoint x="261" y="170" as="targetPoint" />
          </mxGeometry>
        </mxCell>
      </root>
    </mxGraphModel>
  </diagram>
</mxfile>
